# xmcd
#
# Track frame offsets:
#	150
#	16552
#	32707
#	49030
#	61452
#	73575
#	87915
#	97540
#	109695
#	122137
#
# Disc length: 1909
#
# Revision: 2
# Processed by: cddbd v1.5.1PL0 Copyright (c) Steve Scherf et al.
# Submitted via: CDex 1.30Release
# Normalized: r1:DSETVAR1,TDELIM( - )
#
DISCID=7207730a
DTITLE=Various Artist - RCA Christmas
DYEAR=1997
DGENRE=Country
TTITLE0=Kenny Rogers and Dolly Parton - Hard Candy Christmas
TTITLE1=Alabama - Christmas In Dixie
TTITLE2=Martina McBride - O Holy Night
TTITLE3=Clint Black - The Coolest Pair
TTITLE4=Kenny Rogers and Dolly Parton - With Bells On
TTITLE5=Alabama - O Little Town Of Bethlehem
TTITLE6=Elvis Presley - Blue Christmas
TTITLE7=Clint Black - Til' Santa's Gone (Milk And Cookies)
TTITLE8=Peter McCann - The Man Who Ran The Inn
TTITLE9=Alabama - Little Drummer Boy
EXTD=YEAR: 1997 ID3G:   2
EXTT0=
EXTT1=
EXTT2=
EXTT3=
EXTT4=
EXTT5=
EXTT6=
EXTT7=
EXTT8=
EXTT9=
PLAYORDER=
